<svg width="24" height="24" viewBox="0 0 24 24" fill="none" xmlns="http://www.w3.org/2000/svg">
<g id="Icons / General / Align vertically">
<path id="Shape" d="M15.0008 20.5C14.4957 20.5 14.0681 20.325 13.7181 19.975C13.3681 19.625 13.1931 19.1974 13.1931 18.6923V5.30775C13.1931 4.80258 13.3681 4.375 13.7181 4.025C14.0681 3.675 14.4957 3.5 15.0008 3.5H18.3853C18.8905 3.5 19.3181 3.675 19.6681 4.025C20.0181 4.375 20.1931 4.80258 20.1931 5.30775V18.6923C20.1931 19.1974 20.0181 19.625 19.6681 19.975C19.3181 20.325 18.8905 20.5 18.3853 20.5H15.0008ZM14.6931 5.30775V18.6923C14.6931 18.7692 14.7252 18.8398 14.7893 18.9038C14.8533 18.9679 14.9238 19 15.0008 19H18.3853C18.4623 19 18.5328 18.9679 18.5968 18.9038C18.661 18.8398 18.6931 18.7692 18.6931 18.6923V5.30775C18.6931 5.23075 18.661 5.16025 18.5968 5.09625C18.5328 5.03208 18.4623 5 18.3853 5H15.0008C14.9238 5 14.8533 5.03208 14.7893 5.09625C14.7252 5.16025 14.6931 5.23075 14.6931 5.30775ZM5.61634 20.5C5.11118 20.5 4.68359 20.325 4.33359 19.975C3.98359 19.625 3.80859 19.1974 3.80859 18.6923V5.30775C3.80859 4.80258 3.98359 4.375 4.33359 4.025C4.68359 3.675 5.11118 3.5 5.61634 3.5H9.00084C9.50601 3.5 9.93359 3.675 10.2836 4.025C10.6336 4.375 10.8086 4.80258 10.8086 5.30775V18.6923C10.8086 19.1974 10.6336 19.625 10.2836 19.975C9.93359 20.325 9.50601 20.5 9.00084 20.5H5.61634ZM5.30859 5.30775V18.6923C5.30859 18.7692 5.34068 18.8398 5.40484 18.9038C5.46884 18.9679 5.53934 19 5.61634 19H9.00084C9.07784 19 9.14834 18.9679 9.21234 18.9038C9.27651 18.8398 9.30859 18.7692 9.30859 18.6923V5.30775C9.30859 5.23075 9.27651 5.16025 9.21234 5.09625C9.14834 5.03208 9.07784 5 9.00084 5H5.61634C5.53934 5 5.46884 5.03208 5.40484 5.09625C5.34068 5.16025 5.30859 5.23075 5.30859 5.30775Z" fill="#001450"/>
</g>
</svg>
