<svg width="24" height="24" viewBox="0 0 24 24" fill="none" xmlns="http://www.w3.org/2000/svg">
<g id="Icons / Text editor / art_line">
<g id="Shape">
<path d="M7.3075 15.5C6.8025 15.5 6.375 15.325 6.025 14.975C5.675 14.625 5.5 14.1974 5.5 13.6923V4.30775C5.5 3.80258 5.675 3.375 6.025 3.025C6.375 2.675 6.8025 2.5 7.3075 2.5H16.6923C17.1973 2.5 17.6247 2.675 17.9747 3.025C18.3247 3.375 18.4998 3.80258 18.4998 4.30775V13.6923C18.4998 14.1974 18.3247 14.625 17.9747 14.975C17.6247 15.325 17.1973 15.5 16.6923 15.5H7.3075ZM7.3075 14H16.6923C16.7691 14 16.8396 13.9679 16.9038 13.9038C16.9678 13.8398 16.9998 13.7692 16.9998 13.6923V4.30775C16.9998 4.23075 16.9678 4.16025 16.9038 4.09625C16.8396 4.03208 16.7691 4 16.6923 4H7.3075C7.23067 4 7.16017 4.03208 7.096 4.09625C7.03183 4.16025 6.99975 4.23075 6.99975 4.30775V13.6923C6.99975 13.7692 7.03183 13.8398 7.096 13.9038C7.16017 13.9679 7.23067 14 7.3075 14ZM8.23075 11.8845H15.769L13.3997 8.69225L11.4998 11.1923L10.0998 9.34225L8.23075 11.8845Z" fill="#001450"/>
<path d="M5.5 21.6152H18.5V20.1152H5.5V21.6152Z" fill="#001450"/>
<path d="M5.5 18.4998H18.5V17L5.5 17V18.4998Z" fill="#001450"/>
</g>
</g>
</svg>
