<svg width="24" height="24" viewBox="0 0 24 24" fill="none" xmlns="http://www.w3.org/2000/svg">
<g id="Icons / Text editor / art_wrap">
<g id="Shape">
<path d="M7.19031 18.5C6.68531 18.5 6.25781 18.325 5.90781 17.975C5.55781 17.625 5.38281 17.1974 5.38281 16.6923V7.30775C5.38281 6.80258 5.55781 6.375 5.90781 6.025C6.25781 5.675 6.68531 5.5 7.19031 5.5H16.5751C17.0801 5.5 17.5076 5.675 17.8576 6.025C18.2076 6.375 18.3826 6.80258 18.3826 7.30775V16.6923C18.3826 17.1974 18.2076 17.625 17.8576 17.975C17.5076 18.325 17.0801 18.5 16.5751 18.5H7.19031ZM7.19031 17H16.5751C16.6519 17 16.7224 16.9679 16.7866 16.9038C16.8506 16.8398 16.8826 16.7692 16.8826 16.6923V7.30775C16.8826 7.23075 16.8506 7.16025 16.7866 7.09625C16.7224 7.03208 16.6519 7 16.5751 7H7.19031C7.11348 7 7.04298 7.03208 6.97881 7.09625C6.91465 7.16025 6.88256 7.23075 6.88256 7.30775V16.6923C6.88256 16.7692 6.91465 16.8398 6.97881 16.9038C7.04298 16.9679 7.11348 17 7.19031 17ZM8.11356 14.8845H15.6518L13.2826 11.6923L11.3826 14.1923L9.98256 12.3423L8.11356 14.8845ZM20.1136 18.5V5.5H21.6133V18.5H20.1136Z" fill="#001450"/>
<path d="M2.11328 5.5V18.5H3.61303V5.5H2.11328Z" fill="#001450"/>
</g>
</g>
</svg>
