<svg width="24" height="24" viewBox="0 0 24 24" fill="none" xmlns="http://www.w3.org/2000/svg">
<g id="Icons / Text editor / art_inline with text">
<path id="Shape" d="M4.19031 18.5C3.68531 18.5 3.25781 18.325 2.90781 17.975C2.55781 17.625 2.38281 17.1974 2.38281 16.6923V7.30775C2.38281 6.80258 2.55781 6.375 2.90781 6.025C3.25781 5.675 3.68531 5.5 4.19031 5.5H13.5751C14.0801 5.5 14.5076 5.675 14.8576 6.025C15.2076 6.375 15.3826 6.80258 15.3826 7.30775V16.6923C15.3826 17.1974 15.2076 17.625 14.8576 17.975C14.5076 18.325 14.0801 18.5 13.5751 18.5H4.19031ZM4.19031 17H13.5751C13.6519 17 13.7224 16.9679 13.7866 16.9038C13.8506 16.8398 13.8826 16.7692 13.8826 16.6923V7.30775C13.8826 7.23075 13.8506 7.16025 13.7866 7.09625C13.7224 7.03208 13.6519 7 13.5751 7H4.19031C4.11348 7 4.04298 7.03208 3.97881 7.09625C3.91465 7.16025 3.88256 7.23075 3.88256 7.30775V16.6923C3.88256 16.7692 3.91465 16.8398 3.97881 16.9038C4.04298 16.9679 4.11348 17 4.19031 17ZM5.11356 14.8845H12.6518L10.2826 11.6923L8.38256 14.1923L6.98256 12.3423L5.11356 14.8845ZM16.9981 18.5V5.5H18.4981V18.5H16.9981ZM20.1136 18.5V5.5H21.6133V18.5H20.1136Z" fill="#001450"/>
</g>
</svg>
