<svg width="24" height="24" viewBox="0 0 24 24" fill="none" xmlns="http://www.w3.org/2000/svg">
<g id="Icons / Text editor / bold">
<path id="Shape" d="M7.33789 18.5039V5.25391H12.1994C13.2186 5.25391 14.1401 5.57124 14.9639 6.20591C15.7876 6.84041 16.1994 7.69491 16.1994 8.76941C16.1994 9.51674 16.0189 10.126 15.6579 10.5972C15.2971 11.0683 14.9083 11.4103 14.4916 11.6232C15.0045 11.8 15.4942 12.1497 15.9609 12.6722C16.4276 13.1947 16.6609 13.8982 16.6609 14.7827C16.6609 16.0608 16.1897 17.0006 15.2474 17.6019C14.3051 18.2032 13.3557 18.5039 12.3994 18.5039H7.33789ZM9.48789 16.5117H12.3186C13.1058 16.5117 13.6622 16.2931 13.9879 15.8559C14.3136 15.4187 14.4764 14.9995 14.4764 14.5982C14.4764 14.1968 14.3136 13.7776 13.9879 13.3404C13.6622 12.9032 13.0904 12.6847 12.2724 12.6847H9.48789V16.5117ZM9.48789 10.7539H12.0821C12.6898 10.7539 13.1716 10.5802 13.5274 10.2327C13.8831 9.88532 14.0609 9.46932 14.0609 8.98466C14.0609 8.46932 13.8728 8.04816 13.4966 7.72116C13.1203 7.39432 12.6591 7.23091 12.1129 7.23091H9.48789V10.7539Z" fill="#001450"/>
</g>
</svg>
