<svg width="24" height="24" viewBox="0 0 24 24" fill="none" xmlns="http://www.w3.org/2000/svg">
<g id="Icons / General / Calendar">
<path id="Shape" d="M5.30775 21.4981C4.80258 21.4981 4.375 21.3231 4.025 20.9731C3.675 20.6231 3.5 20.1955 3.5 19.6903V6.30581C3.5 5.80065 3.675 5.37306 4.025 5.02306C4.375 4.67306 4.80258 4.49806 5.30775 4.49806H6.69225V2.38281H8.23075V4.49806H15.8077V2.38281H17.3077V4.49806H18.6923C19.1974 4.49806 19.625 4.67306 19.975 5.02306C20.325 5.37306 20.5 5.80065 20.5 6.30581V19.6903C20.5 20.1955 20.325 20.6231 19.975 20.9731C19.625 21.3231 19.1974 21.4981 18.6923 21.4981H5.30775ZM5.30775 19.9981H18.6923C18.7692 19.9981 18.8398 19.966 18.9038 19.9018C18.9679 19.8378 19 19.7673 19 19.6903V10.3058H5V19.6903C5 19.7673 5.03208 19.8378 5.09625 19.9018C5.16025 19.966 5.23075 19.9981 5.30775 19.9981ZM5 8.80581H19V6.30581C19 6.22881 18.9679 6.15831 18.9038 6.09431C18.8398 6.03014 18.7692 5.99806 18.6923 5.99806H5.30775C5.23075 5.99806 5.16025 6.03014 5.09625 6.09431C5.03208 6.15831 5 6.22881 5 6.30581V8.80581Z" fill="#001450"/>
</g>
</svg>
