<svg width="24" height="24" viewBox="0 0 24 24" fill="none" xmlns="http://www.w3.org/2000/svg">
<g id="Icons / General / Citation">
<g id="Shape">
<path fill-rule="evenodd" clip-rule="evenodd" d="M13 6.25H19.5V11.75H14.0224C14.275 14.5533 16.631 16.75 19.5 16.75V17.75C15.9101 17.75 13 14.8399 13 11.25V6.25ZM4.5 6.25H11V11.75H5.52242C5.77504 14.5533 8.13098 16.75 11 16.75V17.75C7.41015 17.75 4.5 14.8399 4.5 11.25V6.25Z" fill="#001450"/>
<path fill-rule="evenodd" clip-rule="evenodd" d="M19.75 6H12.75V11.25C12.75 14.9779 15.7721 18 19.5 18H19.75V16.5H19.5C16.8552 16.5 14.6669 14.5441 14.3031 12H19.75V6ZM19.25 6.5V11.5H13.7489L13.7734 11.7724C14.0302 14.6215 16.3646 16.8712 19.25 16.9947V17.4951C15.9141 17.3639 13.25 14.6181 13.25 11.25V6.5H19.25ZM11.25 6H4.25V11.25C4.25 14.9779 7.27208 18 11 18H11.25V16.5H11C8.35519 16.5 6.16693 14.5441 5.80314 12H11.25V6ZM10.75 6.5V11.5H5.24888L5.27343 11.7724C5.53018 14.6215 7.86459 16.8712 10.75 16.9947V17.4951C7.41412 17.3639 4.75 14.6181 4.75 11.25V6.5H10.75Z" fill="#001450"/>
</g>
</g>
</svg>
