<svg width="24" height="24" viewBox="0 0 24 24" fill="none" xmlns="http://www.w3.org/2000/svg">
<g id="Icons / General / Corpus">
<g id="Shape">
<path d="M7 14.5H10.4808V13.5H7V14.5ZM7 11.5H13.9615V10.5H7V11.5ZM7 8.5H13.9615V7.5H7V8.5ZM5.1155 20C4.65517 20 4.27083 19.8458 3.9625 19.5375C3.65417 19.2292 3.5 18.8448 3.5 18.3845V5.6155C3.5 5.15517 3.65417 4.77083 3.9625 4.4625C4.27083 4.15417 4.65517 4 5.1155 4H15.8845C16.3448 4 16.7292 4.15417 17.0375 4.4625C17.3458 4.77083 17.5 5.15517 17.5 5.6155V18.3845C17.5 18.8448 17.3458 19.2292 17.0375 19.5375C16.7292 19.8458 16.3448 20 15.8845 20H5.1155ZM5.1155 19H15.8845C16.0385 19 16.1796 18.9359 16.3077 18.8077C16.4359 18.6796 16.5 18.5385 16.5 18.3845V5.6155C16.5 5.4615 16.4359 5.32042 16.3077 5.19225C16.1796 5.06408 16.0385 5 15.8845 5H5.1155C4.9615 5 4.82042 5.06408 4.69225 5.19225C4.56408 5.32042 4.5 5.4615 4.5 5.6155V18.3845C4.5 18.5385 4.56408 18.6796 4.69225 18.8077C4.82042 18.9359 4.9615 19 5.1155 19Z" fill="#001450"/>
<path fill-rule="evenodd" clip-rule="evenodd" d="M5.1155 4.25C4.71737 4.25 4.3979 4.38065 4.13928 4.63928C3.88065 4.8979 3.75 5.21737 3.75 5.6155V18.3845C3.75 18.7826 3.88065 19.1021 4.13928 19.3607C4.3979 19.6193 4.71737 19.75 5.1155 19.75H15.8845C16.2826 19.75 16.6021 19.6193 16.8607 19.3607C17.1193 19.1021 17.25 18.7826 17.25 18.3845V5.6155C17.25 5.21737 17.1193 4.8979 16.8607 4.63928C16.6021 4.38065 16.2826 4.25 15.8845 4.25H5.1155ZM3.78572 4.28572C4.14376 3.92768 4.59297 3.75 5.1155 3.75H15.8845C16.407 3.75 16.8562 3.92768 17.2143 4.28572C17.5723 4.64376 17.75 5.09297 17.75 5.6155V18.3845C17.75 18.907 17.5723 19.3562 17.2143 19.7143C16.8562 20.0723 16.407 20.25 15.8845 20.25H5.1155C4.59297 20.25 4.14376 20.0723 3.78572 19.7143C3.42768 19.3562 3.25 18.907 3.25 18.3845V5.6155C3.25 5.09297 3.42768 4.64376 3.78572 4.28572ZM4.53125 5C4.69432 4.84321 4.89084 4.75 5.1155 4.75H15.8845C16.1165 4.75 16.3184 4.84936 16.4845 5.01547C16.6506 5.18159 16.75 5.38355 16.75 5.6155V18.3845C16.75 18.6165 16.6506 18.8184 16.4845 18.9845C16.3184 19.1506 16.1165 19.25 15.8845 19.25H5.1155C4.89084 19.25 4.69432 19.1568 4.53125 19H4.25V5H4.53125ZM4.75 5.6155V18.3845C4.75 18.4605 4.77881 18.5408 4.86903 18.631C4.95924 18.7212 5.03945 18.75 5.1155 18.75H15.8845C15.9605 18.75 16.0408 18.7212 16.131 18.631C16.2212 18.5408 16.25 18.4605 16.25 18.3845V5.6155C16.25 5.53945 16.2212 5.45924 16.131 5.36903C16.0408 5.27881 15.9605 5.25 15.8845 5.25H5.1155C5.03945 5.25 4.95924 5.27881 4.86903 5.36903C4.77881 5.45924 4.75 5.53945 4.75 5.6155ZM6.75 7.25H14.2115V8.75H6.75V7.25ZM7.25 7.75V8.25H13.7115V7.75H7.25ZM6.75 10.25H14.2115V11.75H6.75V10.25ZM7.25 10.75V11.25H13.7115V10.75H7.25ZM6.75 13.25H10.7308V14.75H6.75V13.25ZM7.25 13.75V14.25H10.2308V13.75H7.25Z" fill="#001450"/>
<path d="M19.922 1.4625C19.6137 1.15417 19.2293 1 18.769 1L7 1L7 2L18.769 2C18.923 2 19.0641 2.06409 19.1923 2.19225C19.3204 2.32042 19.3845 2.46142 19.3845 2.61525L19.3845 16.3845H20.3845L20.3845 2.61525C20.3845 2.15508 20.2303 1.77083 19.922 1.4625Z" fill="#001450"/>
<path fill-rule="evenodd" clip-rule="evenodd" d="M20.6345 16.6345H19.1345L19.1345 2.61525C19.1345 2.53944 19.1058 2.45931 19.0155 2.36903C18.9253 2.27881 18.845 2.25 18.769 2.25L6.75 2.25L6.75 0.750001L18.769 0.75C19.2915 0.75 19.7407 0.927681 20.0988 1.28572C20.4568 1.64375 20.6345 2.09285 20.6345 2.61525L20.6345 16.6345ZM20.1345 16.1345L20.1345 2.61525C20.1345 2.21731 20.0039 1.89792 19.7452 1.63928C19.4866 1.38065 19.1671 1.25 18.769 1.25L7.25 1.25V1.75L18.769 1.75C19.001 1.75 19.2029 1.84936 19.369 2.01547C19.5351 2.18153 19.6345 2.38339 19.6345 2.61525L19.6345 16.1345H20.1345Z" fill="#001450"/>
</g>
</g>
</svg>
