<svg width="24" height="24" viewBox="0 0 24 24" fill="none" xmlns="http://www.w3.org/2000/svg">
<g id="Icons / General / Drag indicator">
<path id="Shape" d="M8.99806 19.6133C8.5539 19.6133 8.17365 19.4551 7.85731 19.1388C7.54098 18.8225 7.38281 18.4422 7.38281 17.9981C7.38281 17.5539 7.54098 17.1736 7.85731 16.8573C8.17365 16.541 8.5539 16.3828 8.99806 16.3828C9.44223 16.3828 9.82248 16.541 10.1388 16.8573C10.4551 17.1736 10.6133 17.5539 10.6133 17.9981C10.6133 18.4422 10.4551 18.8225 10.1388 19.1388C9.82248 19.4551 9.44223 19.6133 8.99806 19.6133ZM14.9981 19.6133C14.5539 19.6133 14.1736 19.4551 13.8573 19.1388C13.541 18.8225 13.3828 18.4422 13.3828 17.9981C13.3828 17.5539 13.541 17.1736 13.8573 16.8573C14.1736 16.541 14.5539 16.3828 14.9981 16.3828C15.4422 16.3828 15.8225 16.541 16.1388 16.8573C16.4551 17.1736 16.6133 17.5539 16.6133 17.9981C16.6133 18.4422 16.4551 18.8225 16.1388 19.1388C15.8225 19.4551 15.4422 19.6133 14.9981 19.6133ZM8.99806 13.6133C8.5539 13.6133 8.17365 13.4551 7.85731 13.1388C7.54098 12.8225 7.38281 12.4422 7.38281 11.9981C7.38281 11.5539 7.54098 11.1736 7.85731 10.8573C8.17365 10.541 8.5539 10.3828 8.99806 10.3828C9.44223 10.3828 9.82248 10.541 10.1388 10.8573C10.4551 11.1736 10.6133 11.5539 10.6133 11.9981C10.6133 12.4422 10.4551 12.8225 10.1388 13.1388C9.82248 13.4551 9.44223 13.6133 8.99806 13.6133ZM14.9981 13.6133C14.5539 13.6133 14.1736 13.4551 13.8573 13.1388C13.541 12.8225 13.3828 12.4422 13.3828 11.9981C13.3828 11.5539 13.541 11.1736 13.8573 10.8573C14.1736 10.541 14.5539 10.3828 14.9981 10.3828C15.4422 10.3828 15.8225 10.541 16.1388 10.8573C16.4551 11.1736 16.6133 11.5539 16.6133 11.9981C16.6133 12.4422 16.4551 12.8225 16.1388 13.1388C15.8225 13.4551 15.4422 13.6133 14.9981 13.6133ZM8.99806 7.61331C8.5539 7.61331 8.17365 7.45515 7.85731 7.13881C7.54098 6.82248 7.38281 6.44223 7.38281 5.99806C7.38281 5.5539 7.54098 5.17365 7.85731 4.85731C8.17365 4.54098 8.5539 4.38281 8.99806 4.38281C9.44223 4.38281 9.82248 4.54098 10.1388 4.85731C10.4551 5.17365 10.6133 5.5539 10.6133 5.99806C10.6133 6.44223 10.4551 6.82248 10.1388 7.13881C9.82248 7.45515 9.44223 7.61331 8.99806 7.61331ZM14.9981 7.61331C14.5539 7.61331 14.1736 7.45515 13.8573 7.13881C13.541 6.82248 13.3828 6.44223 13.3828 5.99806C13.3828 5.5539 13.541 5.17365 13.8573 4.85731C14.1736 4.54098 14.5539 4.38281 14.9981 4.38281C15.4422 4.38281 15.8225 4.54098 16.1388 4.85731C16.4551 5.17365 16.6133 5.5539 16.6133 5.99806C16.6133 6.44223 16.4551 6.82248 16.1388 7.13881C15.8225 7.45515 15.4422 7.61331 14.9981 7.61331Z" fill="#001450"/>
</g>
</svg>
