<svg width="24" height="24" viewBox="0 0 24 24" fill="none" xmlns="http://www.w3.org/2000/svg">
<g id="Icons / General / Error">
<g id="Shape">
<path fill-rule="evenodd" clip-rule="evenodd" d="M22 7.9V16.2L16.1 22H7.9L2 16.2V7.9L7.9 2H16.1L22 7.9ZM11.5 5.7V14.2H12.7V5.7H11.5ZM12.6 18.3H11.4V16.5H12.6V18.3ZM15.7 3L21 8.3V15.8L15.7 21H8.3L3 15.8V8.3L8.3 3H15.7Z" fill="#001450"/>
<path fill-rule="evenodd" clip-rule="evenodd" d="M7.79645 1.75H16.2036L22.25 7.79645V16.3048L16.2023 22.25H7.7977L1.75 16.3048V7.79645L7.79645 1.75ZM8.00355 2.25L2.25 8.00355V16.0952L8.00231 21.75H15.9977L21.75 16.0952V8.00355L15.9964 2.25H8.00355ZM8.19645 2.75H15.8036L21.25 8.19645V15.905L15.8022 21.25H8.19784L2.75 15.905V8.19645L8.19645 2.75ZM8.40355 3.25L3.25 8.40355V15.695L8.40216 20.75H15.5978L20.75 15.695V8.40355L15.5964 3.25H8.40355ZM11.25 5.45H12.95V14.45H11.25V5.45ZM11.75 5.95V13.95H12.45V5.95H11.75ZM11.15 16.25H12.85V18.55H11.15V16.25ZM11.65 16.75V18.05H12.35V16.75H11.65Z" fill="#001450"/>
</g>
</g>
</svg>
