<svg width="24" height="24" viewBox="0 0 24 24" fill="none" xmlns="http://www.w3.org/2000/svg">
<g id="Icons / Text editor / highlighter">
<path id="Shape" d="M2 24.0017V21.0017H22V24.0017H2ZM14.302 12.1459L11.702 9.54594L7.7595 13.4882C7.70183 13.5459 7.673 13.6164 7.673 13.6997C7.673 13.783 7.70183 13.8536 7.7595 13.9114L9.921 16.0882C9.97883 16.1459 10.0494 16.1747 10.1328 16.1747C10.2161 16.1747 10.2866 16.1459 10.3442 16.0882L14.302 12.1459ZM12.771 8.49219L15.3558 11.0767L19.625 6.82294C19.6827 6.76527 19.7115 6.69152 19.7115 6.60169C19.7115 6.51185 19.6827 6.43811 19.625 6.38044L17.4672 4.22294C17.4096 4.16527 17.3359 4.13644 17.2462 4.13644C17.1564 4.13644 17.0827 4.16527 17.025 4.22294L12.771 8.49219ZM11.1902 7.94994L15.898 12.6574L11.4135 17.1574C11.0518 17.5189 10.6274 17.6997 10.1403 17.6997C9.65308 17.6997 9.22875 17.5189 8.86725 17.1574L8.771 17.0612L7.85575 17.9152H3.97125L6.8135 15.0882L6.7365 15.0114C6.375 14.6498 6.18908 14.2203 6.17875 13.7229C6.16858 13.2254 6.34425 12.7959 6.70575 12.4344L11.1902 7.94994ZM11.1902 7.94994L15.9808 3.15944C16.3422 2.79794 16.7666 2.61719 17.2538 2.61719C17.7409 2.61719 18.1653 2.79794 18.527 3.15944L20.7038 5.32094C21.0653 5.68244 21.246 6.10677 21.246 6.59394C21.246 7.0811 21.0653 7.50544 20.7038 7.86694L15.898 12.6574L11.1902 7.94994Z" fill="#001450"/>
</g>
</svg>
