<svg width="24" height="24" viewBox="0 0 24 24" fill="none" xmlns="http://www.w3.org/2000/svg">
<g id="Icons / General / Keyboard">
<path id="Shape" d="M4.30775 18.5C3.80258 18.5 3.375 18.325 3.025 17.975C2.675 17.625 2.5 17.1974 2.5 16.6923V7.30775C2.5 6.80258 2.675 6.375 3.025 6.025C3.375 5.675 3.80258 5.5 4.30775 5.5H19.6923C20.1974 5.5 20.625 5.675 20.975 6.025C21.325 6.375 21.5 6.80258 21.5 7.30775V16.6923C21.5 17.1974 21.325 17.625 20.975 17.975C20.625 18.325 20.1974 18.5 19.6923 18.5H4.30775ZM4.30775 17H19.6923C19.7693 17 19.8398 16.9679 19.9038 16.9038C19.9679 16.8398 20 16.7692 20 16.6923V7.30775C20 7.23075 19.9679 7.16025 19.9038 7.09625C19.8398 7.03208 19.7693 7 19.6923 7H4.30775C4.23075 7 4.16025 7.03208 4.09625 7.09625C4.03208 7.16025 4 7.23075 4 7.30775V16.6923C4 16.7692 4.03208 16.8398 4.09625 16.9038C4.16025 16.9679 4.23075 17 4.30775 17ZM8.1155 15.8845H15.8845V14.1155H8.1155V15.8845ZM5.1155 12.8845H6.8845V11.1155H5.1155V12.8845ZM8.1155 12.8845H9.8845V11.1155H8.1155V12.8845ZM11.1155 12.8845H12.8845V11.1155H11.1155V12.8845ZM14.1155 12.8845H15.8845V11.1155H14.1155V12.8845ZM17.1155 12.8845H18.8845V11.1155H17.1155V12.8845ZM5.1155 9.8845H6.8845V8.1155H5.1155V9.8845ZM8.1155 9.8845H9.8845V8.1155H8.1155V9.8845ZM11.1155 9.8845H12.8845V8.1155H11.1155V9.8845ZM14.1155 9.8845H15.8845V8.1155H14.1155V9.8845ZM17.1155 9.8845H18.8845V8.1155H17.1155V9.8845Z" fill="#001450"/>
</g>
</svg>
