<svg width="24" height="24" viewBox="0 0 24 24" fill="none" xmlns="http://www.w3.org/2000/svg">
<g id="Icons / Text editor / list bullet - empty">
<path id="Shape" d="M12 17C10.6164 17 9.43718 16.5126 8.46231 15.5377C7.48744 14.5628 7 13.3836 7 12C7 10.6164 7.48744 9.43718 8.46231 8.46231C9.43718 7.48744 10.6164 7 12 7C13.3836 7 14.5628 7.48744 15.5377 8.46231C16.5126 9.43718 17 10.6164 17 12C17 13.3836 16.5126 14.5628 15.5377 15.5377C14.5628 16.5126 13.3836 17 12 17ZM12 15.8462C13.0641 15.8462 13.9712 15.4712 14.7212 14.7212C15.4712 13.9712 15.8462 13.0641 15.8462 12C15.8462 10.9359 15.4712 10.0288 14.7212 9.27885C13.9712 8.52885 13.0641 8.15385 12 8.15385C10.9359 8.15385 10.0288 8.52885 9.27885 9.27885C8.52885 10.0288 8.15385 10.9359 8.15385 12C8.15385 13.0641 8.52885 13.9712 9.27885 14.7212C10.0288 15.4712 10.9359 15.8462 12 15.8462Z" fill="#001450"/>
</g>
</svg>
