<svg width="24" height="24" viewBox="0 0 24 24" fill="none" xmlns="http://www.w3.org/2000/svg">
<g id="Icons / Text editor / list lowercase">
<path id="Shape" d="M11.2492 16C10.4134 16 9.74626 15.7706 9.24775 15.3117C8.74925 14.8529 8.5 14.2636 8.5 13.5438C8.5 12.8017 8.79114 12.1993 9.37341 11.7365C9.95586 11.2737 10.704 11.0423 11.6177 11.0423C11.9993 11.0423 12.3789 11.0782 12.7566 11.1502C13.1342 11.2221 13.4637 11.3215 13.7448 11.4483V10.9908C13.7448 10.4071 13.5722 9.95093 13.227 9.6222C12.8816 9.29329 12.4007 9.12884 11.784 9.12884C11.409 9.12884 11.0633 9.20051 10.7471 9.34385C10.4309 9.48701 10.1361 9.69987 9.86264 9.98243L8.92975 9.23982C9.32852 8.81462 9.76162 8.50168 10.2291 8.30101C10.6967 8.10034 11.2202 8 11.7998 8C12.8852 8 13.6933 8.26573 14.2243 8.79719C14.7551 9.32866 15.0205 10.1258 15.0205 11.1888V15.7523H13.7448V14.7501H13.6418C13.3751 15.1647 13.0407 15.4767 12.6387 15.6861C12.2366 15.8954 11.7735 16 11.2492 16ZM11.4393 14.8869C12.0929 14.8869 12.6433 14.6578 13.0903 14.1996C13.5373 13.7413 13.7608 13.1847 13.7608 12.5298C13.5205 12.3925 13.2247 12.2852 12.8735 12.2079C12.5221 12.1307 12.1768 12.0921 11.8376 12.0921C11.2222 12.0921 10.7369 12.2205 10.3817 12.4773C10.0264 12.7341 9.84874 13.0896 9.84874 13.5438C9.84874 13.9268 9.99766 14.2463 10.2955 14.5024C10.5933 14.7587 10.9746 14.8869 11.4393 14.8869Z" fill="#001450"/>
</g>
</svg>
