<svg width="24" height="24" viewBox="0 0 24 24" fill="none" xmlns="http://www.w3.org/2000/svg">
<g id="Icons / General / Metadata">
<path id="Shape" d="M4.39342 14.0801H5.27042L5.81067 12.5879H8.42042L8.95117 14.0801H9.87242L7.62992 8.13388H6.62617L4.39342 14.0801ZM6.11667 11.8089L7.10317 9.06663H7.15317L8.13967 11.8089H6.11667ZM14.0434 9.39362V7.87812C14.5538 7.69229 15.0935 7.55704 15.6627 7.47238C16.232 7.38771 16.8115 7.34538 17.4012 7.34538C17.7525 7.34538 18.1048 7.36146 18.4579 7.39362C18.8111 7.42562 19.1948 7.48013 19.6089 7.55713V9.06087C19.1346 8.96337 18.7249 8.89763 18.3799 8.86363C18.0351 8.82963 17.7088 8.81262 17.4012 8.81262C16.8282 8.81262 16.2586 8.85946 15.6924 8.95312C15.1264 9.04679 14.5768 9.19362 14.0434 9.39362ZM14.0434 15.2744V13.7396C14.4909 13.5705 14.9958 13.4352 15.5579 13.3339C16.1201 13.2327 16.7345 13.1821 17.4012 13.1821C17.8192 13.1821 18.2048 13.2023 18.5579 13.2426C18.9111 13.283 19.2614 13.3416 19.6089 13.4186V14.9224C19.1346 14.8249 18.7249 14.7591 18.3799 14.7251C18.0351 14.6913 17.7088 14.6744 17.4012 14.6744C16.8282 14.6744 16.2586 14.726 15.6924 14.8291C15.1264 14.9323 14.5768 15.0807 14.0434 15.2744ZM14.0434 12.3436V10.8089C14.5704 10.623 15.1227 10.4836 15.7002 10.3906C16.2778 10.2976 16.8448 10.2511 17.4012 10.2511C17.8192 10.2511 18.2048 10.2714 18.5579 10.3119C18.9111 10.3522 19.2614 10.4109 19.6089 10.4879V11.9916C19.2013 11.8941 18.8208 11.8284 18.4674 11.7944C18.1143 11.7605 17.7588 11.7436 17.4012 11.7436C16.8615 11.7436 16.3128 11.7936 15.7549 11.8936C15.1973 11.9936 14.6268 12.1436 14.0434 12.3436ZM6.60117 16.8166C7.42934 16.8166 8.23926 16.923 9.03092 17.1359C9.82259 17.3487 10.596 17.6308 11.3512 17.9821V6.65113C10.632 6.22679 9.87176 5.90854 9.07042 5.69638C8.26909 5.48421 7.44601 5.37812 6.60117 5.37812C5.98451 5.37812 5.40726 5.42104 4.86942 5.50688C4.33159 5.59288 3.77934 5.75121 3.21267 5.98188C3.13584 6.00754 3.08134 6.04446 3.04917 6.09263C3.01717 6.14063 3.00117 6.19346 3.00117 6.25113V17.1089C3.00117 17.1987 3.03326 17.2645 3.09742 17.3061C3.16142 17.3478 3.23192 17.3525 3.30892 17.3204C3.78326 17.1422 4.29634 17.0137 4.84817 16.9349C5.40017 16.856 5.98451 16.8166 6.60117 16.8166ZM12.6512 17.9821C13.4063 17.5975 14.1798 17.307 14.9714 17.1109C15.7631 16.9147 16.573 16.8166 17.4012 16.8166C18.0178 16.8166 18.6063 16.8477 19.1667 16.9099C19.7268 16.972 20.2358 17.1089 20.6934 17.3204C20.7704 17.3525 20.8409 17.3478 20.9049 17.3061C20.9691 17.2645 21.0012 17.1987 21.0012 17.1089V6.25113C21.0012 6.19346 20.9852 6.14221 20.9532 6.09738C20.921 6.05254 20.8665 6.01404 20.7897 5.98188C20.2063 5.78454 19.6499 5.63454 19.1204 5.53188C18.5909 5.42938 18.0178 5.37812 17.4012 5.37812C16.5563 5.37812 15.7333 5.48421 14.9319 5.69638C14.1306 5.90854 13.3703 6.22679 12.6512 6.65113V17.9821ZM12.0012 19.7819C11.1782 19.287 10.3167 18.8858 9.41667 18.5781C8.51667 18.2705 7.57817 18.1166 6.60117 18.1166C6.05767 18.1166 5.51251 18.155 4.96567 18.2319C4.41884 18.3089 3.88901 18.4371 3.37617 18.6166C2.96984 18.764 2.58909 18.7171 2.23392 18.4761C1.87876 18.2351 1.70117 17.8915 1.70117 17.4454V6.06288C1.70117 5.79738 1.77334 5.55346 1.91767 5.33112C2.06184 5.10862 2.25509 4.94738 2.49742 4.84738C3.15759 4.58454 3.82967 4.39062 4.51367 4.26562C5.19767 4.14062 5.89351 4.07812 6.60117 4.07812C7.55751 4.07812 8.49151 4.19863 9.40317 4.43963C10.3147 4.68079 11.1807 5.03596 12.0012 5.50513C12.8383 5.05263 13.7085 4.70163 14.6117 4.45213C15.515 4.20279 16.4448 4.07812 17.4012 4.07812C18.1088 4.07812 18.8047 4.14062 19.4887 4.26562C20.1727 4.39062 20.8448 4.58454 21.5049 4.84738C21.7473 4.94738 21.9447 5.10862 22.0972 5.33112C22.2498 5.55346 22.3262 5.79738 22.3262 6.06288V17.4454C22.3262 17.8749 22.1922 18.2195 21.9242 18.4791C21.6562 18.7386 21.3709 18.8114 21.0684 18.6974C20.4788 18.4742 19.8778 18.3216 19.2657 18.2396C18.6535 18.1576 18.032 18.1166 17.4012 18.1166C16.4242 18.1166 15.4857 18.2705 14.5857 18.5781C13.6857 18.8858 12.8242 19.287 12.0012 19.7819Z" fill="#001450"/>
</g>
</svg>
