<svg width="24" height="24" viewBox="0 0 24 24" fill="none" xmlns="http://www.w3.org/2000/svg">
<g id="Icons / General / Pdf">
<g id="Shape">
<path d="M6.6155 20C6.15517 20 5.77083 19.8458 5.4625 19.5375C5.15417 19.2292 5 18.8448 5 18.3845V5.6155C5 5.15517 5.15417 4.77083 5.4625 4.4625C5.77083 4.15417 6.15517 4 6.6155 4H17.3845C17.8448 4 18.2292 4.15417 18.5375 4.4625C18.8458 4.77083 19 5.15517 19 5.6155V18.3845C19 18.8448 18.8458 19.2292 18.5375 19.5375C18.2292 19.8458 17.8448 20 17.3845 20H6.6155ZM6.6155 19H17.3845C17.5385 19 17.6796 18.9359 17.8077 18.8077C17.9359 18.6796 18 18.5385 18 18.3845V5.6155C18 5.4615 17.9359 5.32042 17.8077 5.19225C17.6796 5.06408 17.5385 5 17.3845 5H6.6155C6.4615 5 6.32042 5.06408 6.19225 5.19225C6.06408 5.32042 6 5.4615 6 5.6155V18.3845C6 18.5385 6.06408 18.6796 6.19225 18.8077C6.32042 18.9359 6.4615 19 6.6155 19Z" fill="#001450"/>
<path fill-rule="evenodd" clip-rule="evenodd" d="M6.6155 4.25C6.21737 4.25 5.8979 4.38065 5.63928 4.63928C5.38065 4.8979 5.25 5.21737 5.25 5.6155V18.3845C5.25 18.7826 5.38065 19.1021 5.63928 19.3607C5.8979 19.6193 6.21737 19.75 6.6155 19.75H17.3845C17.7826 19.75 18.1021 19.6193 18.3607 19.3607C18.6193 19.1021 18.75 18.7826 18.75 18.3845V5.6155C18.75 5.21737 18.6193 4.8979 18.3607 4.63928C18.1021 4.38065 17.7826 4.25 17.3845 4.25H6.6155ZM5.28572 4.28572C5.64376 3.92768 6.09297 3.75 6.6155 3.75H17.3845C17.907 3.75 18.3562 3.92768 18.7143 4.28572C19.0723 4.64376 19.25 5.09297 19.25 5.6155V18.3845C19.25 18.907 19.0723 19.3562 18.7143 19.7143C18.3562 20.0723 17.907 20.25 17.3845 20.25H6.6155C6.09297 20.25 5.64376 20.0723 5.28572 19.7143C4.92768 19.3562 4.75 18.907 4.75 18.3845V5.6155C4.75 5.09297 4.92768 4.64376 5.28572 4.28572ZM6.01547 5.01547C6.18159 4.84936 6.38355 4.75 6.6155 4.75H17.3845C17.6165 4.75 17.8184 4.84936 17.9845 5.01547C18.1506 5.18159 18.25 5.38355 18.25 5.6155V18.3845C18.25 18.6165 18.1506 18.8184 17.9845 18.9845C17.8184 19.1506 17.6165 19.25 17.3845 19.25H6.6155C6.38355 19.25 6.18159 19.1506 6.01547 18.9845C5.84936 18.8184 5.75 18.6165 5.75 18.3845V5.6155C5.75 5.38355 5.84936 5.18159 6.01547 5.01547ZM6.6155 5.25C6.53945 5.25 6.45924 5.27881 6.36903 5.36903C6.27881 5.45924 6.25 5.53945 6.25 5.6155V18.3845C6.25 18.4605 6.27881 18.5408 6.36903 18.631C6.45924 18.7212 6.53945 18.75 6.6155 18.75H17.3845C17.4605 18.75 17.5408 18.7212 17.631 18.631C17.7212 18.5408 17.75 18.4605 17.75 18.3845V5.6155C17.75 5.53945 17.7212 5.45924 17.631 5.36903C17.5408 5.27881 17.4605 5.25 17.3845 5.25H6.6155Z" fill="#001450"/>
</g>
<g id="picture_as_pdf">
<path d="M8 14.5H7V9.5H9C9.28333 9.5 9.52083 9.59583 9.7125 9.7875C9.90417 9.97917 10 10.2167 10 10.5V11.5C10 11.7833 9.90417 12.0208 9.7125 12.2125C9.52083 12.4042 9.28333 12.5 9 12.5H8V14.5Z" fill="#001450"/>
<path d="M13 14.5H11V9.5H13C13.2833 9.5 13.5208 9.59583 13.7125 9.7875C13.9042 9.97917 14 10.2167 14 10.5V13.5C14 13.7833 13.9042 14.0208 13.7125 14.2125C13.5208 14.4042 13.2833 14.5 13 14.5Z" fill="#001450"/>
<path d="M16 14.5H15V9.5H17V10.5H16V11.5H17V12.5H16V14.5Z" fill="#001450"/>
</g>
</g>
</svg>
