<svg width="24" height="24" viewBox="0 0 24 24" fill="none" xmlns="http://www.w3.org/2000/svg">
<g id="Icons / Text editor / restore">
<path id="Shape" d="M16.9082 18.3906V16.8906H9.73145C8.68779 16.8906 7.7897 16.546 7.0372 15.8569C6.28454 15.1679 5.9082 14.317 5.9082 13.3041C5.9082 12.2913 6.28454 11.4419 7.0372 10.7559C7.7897 10.07 8.68779 9.72713 9.73145 9.72713H16.7525L13.97 12.5099L15.0237 13.5636L19.6102 8.97713L15.0237 4.39062L13.97 5.44438L16.7525 8.22713H9.73145C8.26862 8.22713 7.0157 8.71529 5.9727 9.69162C4.9297 10.668 4.4082 11.8721 4.4082 13.3041C4.4082 14.7361 4.9297 15.9419 5.9727 16.9214C7.0157 17.9009 8.26862 18.3906 9.73145 18.3906H16.9082Z" fill="#001450"/>
</g>
</svg>
