<svg width="24" height="24" viewBox="0 0 24 24" fill="none" xmlns="http://www.w3.org/2000/svg">
<g id="Icons / General / Sync">
<path id="Shape" d="M4.327 19.6741V18.1741H7.25L6.523 17.4781C5.70133 16.7178 5.11708 15.8668 4.77025 14.9251C4.42342 13.9835 4.25 13.0319 4.25 12.0704C4.25 10.3422 4.75608 8.79254 5.76825 7.42137C6.78042 6.05021 8.10767 5.10887 9.75 4.59737V6.17813C8.5435 6.64979 7.57525 7.42254 6.84525 8.49637C6.11508 9.57004 5.75 10.7614 5.75 12.0704C5.75 12.8524 5.89808 13.612 6.19425 14.3491C6.49042 15.0863 6.95133 15.7677 7.577 16.3934L8.2115 17.0281V14.2896H9.7115V19.6741H4.327ZM14.25 19.4049V17.8241C15.4565 17.3525 16.4247 16.5797 17.1547 15.5059C17.8849 14.4322 18.25 13.2409 18.25 11.9319C18.25 11.1499 18.1019 10.3903 17.8057 9.65313C17.5096 8.91596 17.0487 8.23454 16.423 7.60887L15.7885 6.97412V9.71263H14.2885V4.32812H19.673V5.82812H16.75L17.477 6.52412C18.268 7.31529 18.8446 8.17396 19.2068 9.10013C19.5689 10.0265 19.75 10.9704 19.75 11.9319C19.75 13.66 19.2439 15.2097 18.2318 16.5809C17.2196 17.952 15.8923 18.8934 14.25 19.4049Z" fill="#001450"/>
</g>
</svg>
