<svg width="24" height="24" viewBox="0 0 24 24" fill="none" xmlns="http://www.w3.org/2000/svg">
<g id="Icons / Text editor / undo">
<path id="Shape" d="M7.1102 18.3906V16.8906H14.287C15.3306 16.8906 16.2287 16.546 16.9812 15.8569C17.7339 15.1679 18.1102 14.317 18.1102 13.3041C18.1102 12.2913 17.7339 11.4419 16.9812 10.7559C16.2287 10.07 15.3306 9.72713 14.287 9.72713H7.26595L10.0485 12.5099L8.9947 13.5636L4.4082 8.97713L8.9947 4.39062L10.0485 5.44438L7.26595 8.22713H14.287C15.7498 8.22713 17.0027 8.71529 18.0457 9.69162C19.0887 10.668 19.6102 11.8721 19.6102 13.3041C19.6102 14.7361 19.0887 15.9419 18.0457 16.9214C17.0027 17.9009 15.7498 18.3906 14.287 18.3906H7.1102Z" fill="#001450"/>
</g>
</svg>
