<svg width="24" height="24" viewBox="0 0 24 24" fill="none" xmlns="http://www.w3.org/2000/svg">
<g id="Icons / General / Add People">
<path id="Shape" d="M12.5313 11.6818C12.9098 11.2701 13.1897 10.7974 13.3712 10.2638C13.5525 9.73008 13.6431 9.17987 13.6431 8.61313C13.6431 8.04639 13.5525 7.49619 13.3712 6.96251C13.1897 6.42883 12.9098 5.95615 12.5313 5.54447C13.3124 5.63461 13.961 5.97186 14.477 6.55624C14.9929 7.14077 15.2509 7.8264 15.2509 8.61313C15.2509 9.40001 14.9929 10.0856 14.477 10.67C13.961 11.2544 13.3124 11.5917 12.5313 11.6818ZM17.201 18.5V16.4131C17.201 15.9282 17.1024 15.4668 16.905 15.0291C16.7077 14.5913 16.4278 14.2157 16.0652 13.9021C16.7471 14.1291 17.3748 14.4353 17.9484 14.8207C18.5219 15.2062 18.8087 15.7369 18.8087 16.4131V18.5H17.201ZM18.8087 12.6671V10.8882H17.0298V9.55397H18.8087V7.77503H20.1429V9.55397H21.9219V10.8882H20.1429V12.6671H18.8087ZM8.75108 11.7263C7.89497 11.7263 7.16205 11.4215 6.55232 10.8119C5.94274 10.2022 5.63794 9.46924 5.63794 8.61313C5.63794 7.75702 5.94274 7.02418 6.55232 6.41459C7.16205 5.80486 7.89497 5.5 8.75108 5.5C9.60719 5.5 10.34 5.80486 10.9496 6.41459C11.5593 7.02418 11.8642 7.75702 11.8642 8.61313C11.8642 9.46924 11.5593 10.2022 10.9496 10.8119C10.34 11.4215 9.60719 11.7263 8.75108 11.7263ZM2.08008 18.5V16.5225C2.08008 16.087 2.19838 15.6836 2.43498 15.3124C2.67157 14.9412 2.9877 14.6558 3.38337 14.4563C4.26261 14.0253 5.14955 13.7021 6.04421 13.4865C6.93872 13.271 7.84101 13.1632 8.75108 13.1632C9.661 13.1632 10.5633 13.271 11.4579 13.4865C12.3525 13.7021 13.2393 14.0253 14.1186 14.4563C14.5142 14.6558 14.8304 14.9412 15.067 15.3124C15.3037 15.6836 15.4221 16.087 15.4221 16.5225V18.5H2.08008ZM8.75108 10.3921C9.24028 10.3921 9.65908 10.2179 10.0075 9.8695C10.3558 9.52113 10.53 9.10234 10.53 8.61313C10.53 8.12393 10.3558 7.70514 10.0075 7.35676C9.65908 7.00839 9.24028 6.8342 8.75108 6.8342C8.26187 6.8342 7.84308 7.00839 7.49471 7.35676C7.14633 7.70514 6.97214 8.12393 6.97214 8.61313C6.97214 9.10234 7.14633 9.52113 7.49471 9.8695C7.84308 10.2179 8.26187 10.3921 8.75108 10.3921ZM3.41428 17.1658H14.0879V16.5225C14.0879 16.3424 14.0357 16.1756 13.9313 16.0222C13.827 15.8689 13.6852 15.7438 13.5062 15.6468C12.7399 15.2694 11.9586 14.9834 11.1622 14.7889C10.3657 14.5946 9.56198 14.4974 8.75108 14.4974C7.94003 14.4974 7.13633 14.5946 6.33996 14.7889C5.54344 14.9834 4.76204 15.2694 3.99577 15.6468C3.81669 15.7438 3.67504 15.8689 3.57082 16.0222C3.46646 16.1756 3.41428 16.3424 3.41428 16.5225V17.1658Z" fill="#001450"/>
</g>
</svg>
