<svg width="24" height="24" viewBox="0 0 24 24" fill="none" xmlns="http://www.w3.org/2000/svg">
<g id="Icons / General / Article review">
<path id="Shape" fill-rule="evenodd" clip-rule="evenodd" d="M5.45 3.72266C4.37305 3.72266 3.5 4.5957 3.5 5.67266V18.3271C3.5 19.404 4.37304 20.2771 5.45 20.2771H9.8954V18.7771H5.45C5.20147 18.7771 5 18.5756 5 18.3271V5.67266C5 5.42413 5.20147 5.22266 5.45 5.22266H16.2226C16.4711 5.22266 16.6726 5.42413 16.6726 5.67266V14.3521H18.1726V5.67266C18.1726 4.5957 17.2996 3.72266 16.2226 3.72266H5.45ZM7.25 7.24988H14.7115V8.74988H7.25V7.24988ZM7.25 10.2499H14.7115V11.7499H7.25V10.2499ZM7.25 13.2499H11.2308V14.7499H7.25V13.2499ZM14.1223 16.8034C15.1952 16.1526 16.3676 15.8269 17.6345 15.8269C18.9015 15.8269 20.074 16.1526 21.1469 16.8034C22.216 17.452 23.0728 18.3224 23.7153 19.4113L23.7903 19.5384L23.7153 19.6654C23.0728 20.7543 22.216 21.6246 21.1469 22.2731C20.0741 22.9241 18.9015 23.2499 17.6345 23.2499C16.3676 23.2499 15.1952 22.9241 14.1223 22.2731C13.0533 21.6246 12.1965 20.7543 11.5539 19.6654L11.479 19.5384L11.5539 19.4113C12.1965 18.3224 13.0533 17.452 14.1223 16.8034ZM17.6345 17.3269C16.7523 17.3269 15.9199 17.5393 15.1337 17.9659C14.3985 18.3647 13.7737 18.8884 13.2577 19.5384C13.7737 20.1883 14.3985 20.7121 15.1337 21.1109C15.9199 21.5374 16.7523 21.7499 17.6345 21.7499C18.5168 21.7499 19.3493 21.5374 20.1355 21.1109C20.8707 20.7121 21.4955 20.1883 22.0115 19.5384C21.4955 18.8884 20.8707 18.3647 20.1355 17.9659C19.3494 17.5393 18.5168 17.3269 17.6345 17.3269ZM16.7513 18.6548C16.9935 18.4126 17.2925 18.2884 17.6345 18.2884C17.9767 18.2884 18.2758 18.4126 18.518 18.6549C18.7603 18.8971 18.8845 19.1962 18.8845 19.5384C18.8845 19.8806 18.7603 20.1797 18.518 20.4219C18.2758 20.6641 17.9767 20.7884 17.6345 20.7884C17.2925 20.7884 16.9935 20.6641 16.7513 20.422V20.0122C16.6734 19.8702 16.6345 19.7123 16.6345 19.5384C16.6345 19.3645 16.6734 19.2065 16.7513 19.0645V18.6548Z" fill="#001450"/>
</g>
</svg>
