<svg width="24" height="24" viewBox="0 0 24 24" fill="none" xmlns="http://www.w3.org/2000/svg">
<g id="Icons / Text editor / beta">
<path id="Shape" d="M9.63761 16.8455V21.5586H7.63477V7.58132C7.63477 6.34553 8.00124 5.37393 8.72567 4.6495C9.44158 3.92507 10.4387 3.55859 11.666 3.55859C12.8507 3.55859 13.7626 3.84837 14.4444 4.41087C15.1177 4.99041 15.4501 5.79155 15.4501 6.80575C15.4501 7.50462 15.2285 8.16087 14.7853 8.76598C14.3422 9.37109 13.7711 9.78871 13.0637 10.0188V10.0529C14.1291 10.2234 14.9558 10.6069 15.5183 11.229C16.0808 11.8342 16.362 12.6097 16.362 13.5643C16.362 14.6893 15.97 15.6097 15.1944 16.3171C14.4103 17.0245 13.3876 17.3739 12.1092 17.3739C11.2058 17.3739 10.3791 17.195 9.63761 16.8455ZM10.9075 11.016V9.37962C11.649 9.28587 12.2541 9.01314 12.7399 8.55291C13.2172 8.08416 13.4558 7.56428 13.4558 6.96768C13.4558 5.79155 12.8507 5.19496 11.6575 5.19496C11.0098 5.19496 10.5069 5.3995 10.1575 5.81712C9.80806 6.23473 9.63761 6.81428 9.63761 7.5728V15.0643C10.4132 15.516 11.1717 15.7376 11.9047 15.7376C12.6206 15.7376 13.1831 15.5501 13.5836 15.1836C13.9842 14.8086 14.1802 14.2802 14.1802 13.6069C14.1802 12.0813 13.0893 11.229 10.9075 11.016Z" fill="#001450"/>
</g>
</svg>
