<svg width="127" height="176" viewBox="0 0 127 176" fill="none" xmlns="http://www.w3.org/2000/svg">
<path fill-rule="evenodd" clip-rule="evenodd" d="M123.676 3H3.17117C3.07663 3 3 3.07664 3 3.17117V172.829C3 172.923 3.07664 173 3.17117 173H123.676C123.77 173 123.847 172.923 123.847 172.829V3.17117C123.847 3.07663 123.77 3 123.676 3ZM3.17117 0C1.41978 0 0 1.41978 0 3.17117V172.829C0 174.58 1.41978 176 3.17117 176H123.676C125.427 176 126.847 174.58 126.847 172.829V3.17117C126.847 1.41978 125.427 0 123.676 0H3.17117Z" fill="#1A1A1A"/>
</svg>
