<svg width="24" height="24" viewBox="0 0 24 24" fill="none" xmlns="http://www.w3.org/2000/svg">
<g id="Icons / General / Comment add">
<path id="Shape" d="M11.248 13.7539H12.748V10.7539H15.748V9.25391H12.748V6.25391H11.248V9.25391H8.24805V10.7539H11.248V13.7539ZM2.49805 21.0424V4.31166C2.49805 3.80649 2.67305 3.37891 3.02305 3.02891C3.37305 2.67891 3.80063 2.50391 4.3058 2.50391H19.6903C20.1955 2.50391 20.623 2.67891 20.973 3.02891C21.323 3.37891 21.498 3.80649 21.498 4.31166V15.6962C21.498 16.2013 21.323 16.6289 20.973 16.9789C20.623 17.3289 20.1955 17.5039 19.6903 17.5039H6.03655L2.49805 21.0424ZM5.39805 16.0039H19.6903C19.7673 16.0039 19.8378 15.9718 19.9018 15.9077C19.966 15.8437 19.998 15.7732 19.998 15.6962V4.31166C19.998 4.23466 19.966 4.16416 19.9018 4.10016C19.8378 4.03599 19.7673 4.00391 19.6903 4.00391H4.3058C4.2288 4.00391 4.1583 4.03599 4.0943 4.10016C4.03013 4.16416 3.99805 4.23466 3.99805 4.31166V17.3887L5.39805 16.0039Z" fill="#001450"/>
</g>
</svg>
