<svg width="24" height="24" viewBox="0 0 24 24" fill="none" xmlns="http://www.w3.org/2000/svg">
<g id="Icons / General / Comparisone mode">
<path id="Shape" fill-rule="evenodd" clip-rule="evenodd" d="M13.7181 19.975C14.0681 20.325 14.4957 20.5 15.0008 20.5H18.3853C18.8905 20.5 19.3181 20.325 19.6681 19.975C20.0181 19.625 20.1931 19.1974 20.1931 18.6923V5.30775C20.1931 4.80258 20.0181 4.375 19.6681 4.025C19.3181 3.675 18.8905 3.5 18.3853 3.5H15.0008C14.4957 3.5 14.0681 3.675 13.7181 4.025C13.3681 4.375 13.1931 4.80258 13.1931 5.30775V11.5H10.8086V5.30775C10.8086 4.80258 10.6336 4.375 10.2836 4.025C9.93359 3.675 9.50601 3.5 9.00084 3.5H5.61634C5.11118 3.5 4.68359 3.675 4.33359 4.025C3.98359 4.375 3.80859 4.80258 3.80859 5.30775V18.6923C3.80859 19.1974 3.98359 19.625 4.33359 19.975C4.68359 20.325 5.11118 20.5 5.61634 20.5H9.00084C9.50601 20.5 9.93359 20.325 10.2836 19.975C10.6336 19.625 10.8086 19.1974 10.8086 18.6923V13H13.1931V18.6923C13.1931 19.1974 13.3681 19.625 13.7181 19.975ZM9.30859 11.5H8V13H9.30859V18.6923C9.30859 18.7692 9.27651 18.8398 9.21234 18.9038C9.14834 18.9679 9.07784 19 9.00084 19H5.61634C5.53934 19 5.46884 18.9679 5.40484 18.9038C5.34068 18.8398 5.30859 18.7692 5.30859 18.6923V5.30775C5.30859 5.23075 5.34068 5.16025 5.40484 5.09625C5.46884 5.03208 5.53934 5 5.61634 5H9.00084C9.07784 5 9.14834 5.03208 9.21234 5.09625C9.27651 5.16025 9.30859 5.23075 9.30859 5.30775V11.5ZM14.6931 11.5V5.30775C14.6931 5.23075 14.7252 5.16025 14.7893 5.09625C14.8533 5.03208 14.9238 5 15.0008 5H18.3853C18.4623 5 18.5328 5.03208 18.5968 5.09625C18.661 5.16025 18.6931 5.23075 18.6931 5.30775V18.6923C18.6931 18.7692 18.661 18.8398 18.5968 18.9038C18.5328 18.9679 18.4623 19 18.3853 19H15.0008C14.9238 19 14.8533 18.9679 14.7893 18.9038C14.7252 18.8398 14.6931 18.7692 14.6931 18.6923V13H16V11.5H14.6931Z" fill="#001450"/>
</g>
</svg>
