<svg width="24" height="24" viewBox="0 0 24 24" fill="none" xmlns="http://www.w3.org/2000/svg">
<g id="Icons / General / Delete">
<path id="Shape" d="M7.30775 20.5017C6.80908 20.5017 6.38308 20.3251 6.02975 19.9719C5.67658 19.6186 5.5 19.1926 5.5 18.6939V6.00169H4.5V4.50169H9V3.61719H15V4.50169H19.5V6.00169H18.5V18.6939C18.5 19.1991 18.325 19.6267 17.975 19.9767C17.625 20.3267 17.1974 20.5017 16.6923 20.5017H7.30775ZM17 6.00169H7V18.6939C7 18.7838 7.02883 18.8575 7.0865 18.9152C7.14417 18.9729 7.21792 19.0017 7.30775 19.0017H16.6923C16.7692 19.0017 16.8398 18.9696 16.9038 18.9054C16.9679 18.8414 17 18.7709 17 18.6939V6.00169ZM9.404 17.0017H10.9037V8.00169H9.404V17.0017ZM13.0962 17.0017H14.596V8.00169H13.0962V17.0017Z" fill="#001450"/>
</g>
</svg>
