<svg width="24" height="24" viewBox="0 0 24 24" fill="none" xmlns="http://www.w3.org/2000/svg">
<g id="Icons / General / Document Add">
<path id="Shape" fill-rule="evenodd" clip-rule="evenodd" d="M5.45 3.72266C4.37305 3.72266 3.5 4.5957 3.5 5.67266V18.3271C3.5 19.404 4.37304 20.2771 5.45 20.2771H10.8954V18.7771H5.45C5.20147 18.7771 5 18.5756 5 18.3271V5.67266C5 5.42413 5.20147 5.22266 5.45 5.22266H16.2226C16.4711 5.22266 16.6726 5.42413 16.6726 5.67266V11.9999H18.1726V5.67266C18.1726 4.5957 17.2996 3.72266 16.2226 3.72266H5.45ZM7.25 7.24988H14.7115V8.74988H7.25V7.24988ZM7.25 10.2499H14.7115V11.7499H7.25V10.2499ZM7.25 13.2499H11.2308V14.7499H7.25V13.2499ZM16.75 13.7499H18.25V17.2499H21.75V18.7499H18.25V22.2499H16.75V18.7499H13.25V17.2499H16.75V13.7499Z" fill="#001450"/>
</g>
</svg>
