<svg width="24" height="24" viewBox="0 0 24 24" fill="none" xmlns="http://www.w3.org/2000/svg">
<g id="Icons / General / Export">
<path id="Shape" d="M7.03837 21.1719C6.59811 21.1719 6.22546 21.0194 5.92043 20.7143C5.61541 20.4093 5.46289 20.0367 5.46289 19.5964V10.5462C5.46289 10.1059 5.61541 9.73327 5.92043 9.42824C6.22546 9.12322 6.59811 8.9707 7.03837 8.9707H9.26726V10.278H7.03837C6.97126 10.278 6.90982 10.3059 6.85404 10.3619C6.79812 10.4176 6.77016 10.4791 6.77016 10.5462V19.5964C6.77016 19.6635 6.79812 19.7249 6.85404 19.7807C6.90982 19.8366 6.97126 19.8646 7.03837 19.8646H16.9601C17.0272 19.8646 17.0886 19.8366 17.1444 19.7807C17.2003 19.7249 17.2283 19.6635 17.2283 19.5964V10.5462C17.2283 10.4791 17.2003 10.4176 17.1444 10.3619C17.0886 10.3059 17.0272 10.278 16.9601 10.278H14.7312V8.9707H16.9601C17.4004 8.9707 17.773 9.12322 18.078 9.42824C18.3831 9.73327 18.5356 10.1059 18.5356 10.5462V19.5964C18.5356 20.0367 18.3831 20.4093 18.078 20.7143C17.773 21.0194 17.4004 21.1719 16.9601 21.1719H7.03837ZM11.3456 15.2892V5.67573L9.7333 7.28803L8.81495 6.35616L11.9992 3.17188L15.1835 6.35616L14.2652 7.28803L12.6529 5.67573V15.2892H11.3456Z" fill="#001450"/>
</g>
</svg>
