<svg width="24" height="24" viewBox="0 0 24 24" fill="none" xmlns="http://www.w3.org/2000/svg">
<g id="Icons / Text editor / history edu">
<path id="Shape" d="M8.05779 21C7.59341 21 7.19582 20.8319 6.86503 20.4956C6.53442 20.1591 6.36912 19.7547 6.36912 19.2824V16.4199H9.61643V13.2706C8.93083 13.3279 8.25283 13.2424 7.58243 13.0141C6.91203 12.7859 6.33291 12.4178 5.84507 11.91V10.4741H4.39901L1 7.01674C1.66102 6.27835 2.44541 5.74435 3.35316 5.41476C4.2611 5.08516 5.18555 4.92037 6.12652 4.92037C6.74063 4.92037 7.33757 4.99165 7.91735 5.13421C8.49731 5.27658 9.06367 5.51142 9.61643 5.83873V4H22V18.1373C22 18.9375 21.7276 19.6146 21.1827 20.1687C20.6378 20.7229 19.9721 21 19.1856 21H8.05779ZM11.3051 16.4199H18.0598V18.1373C18.0598 18.4617 18.1677 18.7337 18.3834 18.9532C18.5992 19.1726 18.8666 19.2824 19.1856 19.2824C19.5045 19.2824 19.7719 19.1726 19.9877 18.9532C20.2034 18.7337 20.3113 18.4617 20.3113 18.1373V5.71763H11.3051V6.97723L17.7783 13.5615V14.7681H16.592L13.2752 11.3947L12.8443 11.8327C12.6034 12.0779 12.3573 12.2908 12.1061 12.4714C11.855 12.6519 11.588 12.7994 11.3051 12.914V16.4199ZM5.11754 8.75642H7.53374V11.1084C7.83826 11.3052 8.13416 11.4395 8.42142 11.5112C8.70868 11.5832 8.99594 11.6191 9.2832 11.6191C9.75509 11.6191 10.1826 11.5414 10.5657 11.3858C10.9489 11.2303 11.3165 10.9734 11.6687 10.6152L12.0889 10.1878L10.3178 8.38655C9.74477 7.8037 9.10251 7.36656 8.39102 7.07514C7.67953 6.78371 6.92469 6.638 6.12652 6.638C5.66457 6.638 5.2197 6.68867 4.79191 6.79001C4.36392 6.89135 3.96296 7.02867 3.58901 7.20196L5.11754 8.75642ZM16.3711 18.1373H8.05779V19.2824H16.6267C16.5343 19.118 16.4687 18.9392 16.4296 18.7459C16.3906 18.5528 16.3711 18.3499 16.3711 18.1373Z" fill="#001450"/>
</g>
</svg>
