<svg width="24" height="24" viewBox="0 0 24 24" fill="none" xmlns="http://www.w3.org/2000/svg">
<g id="Icons / General / History">
<path id="Shape" d="M11.9813 20.5C9.81593 20.5 7.92877 19.7872 6.31977 18.3615C4.71077 16.9358 3.78452 15.1487 3.54102 13H5.07177C5.32427 14.727 6.10152 16.1587 7.40352 17.2952C8.70535 18.4318 10.2313 19 11.9813 19C13.9313 19 15.5854 18.3208 16.9438 16.9625C18.3021 15.6042 18.9813 13.95 18.9813 12C18.9813 10.05 18.3021 8.39583 16.9438 7.0375C15.5854 5.67917 13.9313 5 11.9813 5C10.8889 5 9.86527 5.24267 8.91027 5.728C7.9551 6.21317 7.1326 6.88075 6.44277 7.73075H9.05827V9.23075H3.98127V4.15375H5.48127V6.523C6.29277 5.56533 7.2646 4.82208 8.39677 4.29325C9.52877 3.76442 10.7236 3.5 11.9813 3.5C13.1608 3.5 14.2659 3.72308 15.2968 4.16925C16.3274 4.61542 17.2261 5.22183 17.9928 5.9885C18.7594 6.75517 19.3659 7.65392 19.812 8.68475C20.2582 9.71542 20.4813 10.8205 20.4813 12C20.4813 13.1795 20.2582 14.2846 19.812 15.3152C19.3659 16.3461 18.7594 17.2448 17.9928 18.0115C17.2261 18.7782 16.3274 19.3846 15.2968 19.8307C14.2659 20.2769 13.1608 20.5 11.9813 20.5ZM14.9833 16.027L11.2603 12.3038V7H12.76V11.6962L16.037 14.973L14.9833 16.027Z" fill="#001450"/>
</g>
</svg>
