<svg width="24" height="24" viewBox="0 0 24 24" fill="none" xmlns="http://www.w3.org/2000/svg">
<g id="Icons / General / Link">
<path id="Shape" d="M10.8077 16.5379H7.0385C5.78283 16.5379 4.7125 16.0954 3.8275 15.2104C2.9425 14.3256 2.5 13.2554 2.5 11.9999C2.5 10.7444 2.9425 9.6741 3.8275 8.78894C4.7125 7.9036 5.78283 7.46094 7.0385 7.46094H10.8077V8.96094H7.0385C6.19867 8.96094 5.48233 9.25744 4.8895 9.85044C4.2965 10.4434 4 11.1598 4 11.9994C4 12.8391 4.2965 13.5554 4.8895 14.1484C5.48233 14.7414 6.19867 15.0379 7.0385 15.0379H10.8077V16.5379ZM8.25 12.7494V11.2494H15.75V12.7494H8.25ZM13.1923 16.5379V15.0379H16.9615C17.8013 15.0379 18.5177 14.7414 19.1105 14.1484C19.7035 13.5554 20 12.8391 20 11.9994C20 11.1598 19.7035 10.4434 19.1105 9.85044C18.5177 9.25744 17.8013 8.96094 16.9615 8.96094H13.1923V7.46094H16.9615C18.2172 7.46094 19.2875 7.90344 20.1725 8.78844C21.0575 9.67327 21.5 10.7434 21.5 11.9989C21.5 13.2544 21.0575 14.3248 20.1725 15.2099C19.2875 16.0953 18.2172 16.5379 16.9615 16.5379H13.1923Z" fill="#001450"/>
</g>
</svg>
