<svg width="24" height="24" viewBox="0 0 24 24" fill="none" xmlns="http://www.w3.org/2000/svg">
<g id="Icons / General / Link add">
<path id="Shape" d="M17.0365 19.4994V16.5379H14.075V15.0379H17.0365V12.0764H18.5365V15.0379H21.498V16.5379H18.5365V19.4994H17.0365ZM10.8058 16.5379H7.03655C5.78088 16.5379 4.71055 16.0954 3.82555 15.2104C2.94055 14.3256 2.49805 13.2554 2.49805 11.9999C2.49805 10.7444 2.94055 9.6741 3.82555 8.78894C4.71055 7.9036 5.78088 7.46094 7.03655 7.46094H10.8058V8.96094H7.03655C6.19671 8.96094 5.48038 9.25744 4.88755 9.85044C4.29455 10.4434 3.99805 11.1598 3.99805 11.9994C3.99805 12.8391 4.29455 13.5554 4.88755 14.1484C5.48038 14.7414 6.19671 15.0379 7.03655 15.0379H10.8058V16.5379ZM8.24805 12.7494V11.2494H15.748V12.7494H8.24805ZM21.498 11.9994H19.998C19.998 11.1598 19.7015 10.4434 19.1085 9.85044C18.5157 9.25744 17.7994 8.96094 16.9595 8.96094H13.1903V7.46094H16.9595C18.2152 7.46094 19.2855 7.90344 20.1705 8.78844C21.0555 9.67344 21.498 10.7438 21.498 11.9994Z" fill="#001450"/>
</g>
</svg>
