<svg width="24" height="24" viewBox="0 0 24 24" fill="none" xmlns="http://www.w3.org/2000/svg">
<g id="Icons / General / Metadata review">
<g id="Shape">
<path d="M4.42049 12.0016L6.46849 14.0496L5.76074 14.7631L2.99924 12.0016L5.76074 9.24005L6.46849 9.9343L4.42049 12.0016ZM19.5972 12.0016L17.5492 9.9343L18.2377 9.24005L20.9992 12.0016L18.2377 14.7631L17.5492 14.0496L19.5972 12.0016Z" fill="#001450"/>
<path d="M12.1338 15.4246C10.9121 15.4246 9.78461 15.1111 8.75128 14.4841C7.71795 13.8572 6.89036 13.0169 6.26853 11.9631C6.89036 10.9092 7.71795 10.0688 8.75128 9.44181C9.78461 8.81498 10.9121 8.50156 12.1338 8.50156C13.3556 8.50156 14.4832 8.81498 15.5165 9.44181C16.5499 10.0688 17.3774 10.9092 17.9993 11.9631C17.3774 13.0169 16.5499 13.8572 15.5165 14.4841C14.4832 15.1111 13.3556 15.4246 12.1338 15.4246ZM12.1338 14.4246C13.0583 14.4246 13.9317 14.2015 14.754 13.7553C15.5765 13.3091 16.2673 12.7117 16.8263 11.9631C16.2673 11.2144 15.5765 10.617 14.754 10.1708C13.9317 9.72465 13.0583 9.50156 12.1338 9.50156C11.2094 9.50156 10.3361 9.72465 9.51378 10.1708C8.69128 10.617 8.00053 11.2144 7.44153 11.9631C8.00053 12.7117 8.69128 13.3091 9.51378 13.7553C10.3361 14.2015 11.2094 14.4246 12.1338 14.4246Z" fill="#001450"/>
<path fill-rule="evenodd" clip-rule="evenodd" d="M12.1338 8.65156C10.9392 8.65156 9.8387 8.95761 8.82909 9.57005C7.8422 10.1689 7.04732 10.9659 6.44329 11.9631C7.04732 12.9602 7.8422 13.7572 8.82908 14.3558C9.83869 14.9684 10.9392 15.2746 12.1338 15.2746C13.3285 15.2746 14.4291 14.9684 15.4387 14.3558C16.4256 13.7572 17.2205 12.9602 17.8245 11.9631C17.2205 10.9659 16.4256 10.1689 15.4387 9.57005C14.4291 8.95762 13.3285 8.65156 12.1338 8.65156ZM8.67348 9.31356C9.73054 8.67234 10.885 8.35156 12.1338 8.35156C13.3827 8.35156 14.5373 8.67234 15.5943 9.31356C16.6491 9.95356 17.4942 10.812 18.1285 11.8868L18.1734 11.9631L18.1285 12.0393C17.4942 13.1142 16.6491 13.9725 15.5943 14.6123C14.5373 15.2537 13.3827 15.5746 12.1338 15.5746C10.885 15.5746 9.73052 15.2537 8.67347 14.6123C7.61871 13.9725 6.77359 13.1142 6.13934 12.0393L6.09436 11.9631L6.13934 11.8868C6.77359 10.812 7.61872 9.95356 8.67348 9.31356ZM18.2373 9.02748L21.2114 12.0016L18.2358 14.9771L17.339 14.0477L19.3856 12.0011L17.338 9.93425L18.2373 9.02748ZM5.75973 9.02894L6.68114 9.93278L4.63213 12.0011L6.68019 14.0491L5.76117 14.9756L2.78711 12.0016L5.75973 9.02894ZM5.76176 9.45117L3.21137 12.0016L5.76031 14.5505L6.25679 14.05L4.20885 12.002L6.25584 9.93583L5.76176 9.45117ZM18.2382 9.45263L17.7604 9.93436L19.8089 12.002L17.7595 14.0514L18.2396 14.549L20.7871 12.0016L18.2382 9.45263ZM9.44225 10.039C10.2863 9.58104 11.1841 9.35156 12.1338 9.35156C13.0836 9.35156 13.9815 9.58104 14.8256 10.039C15.6671 10.4955 16.3745 11.1072 16.9465 11.8733L17.0135 11.9631L16.9465 12.0528C16.3745 12.8189 15.6671 13.4307 14.8256 13.8872C13.9815 14.3451 13.0836 14.5746 12.1338 14.5746C11.1841 14.5746 10.2863 14.3451 9.44225 13.8872C8.6007 13.4307 7.89334 12.8189 7.32134 12.0528L7.25433 11.9631L7.32134 11.8733C7.89334 11.1072 8.6007 10.4955 9.44225 10.039ZM12.1338 9.65156C11.2347 9.65156 10.386 9.86825 9.58531 10.3027C8.81501 10.7205 8.16356 11.2737 7.62995 11.9631C8.16356 12.6524 8.815 13.2056 9.5853 13.6235C10.386 14.0579 11.2347 14.2746 12.1338 14.2746C13.033 14.2746 13.8818 14.0579 14.6825 13.6235C15.4528 13.2056 16.1043 12.6524 16.6379 11.9631C16.1043 11.2737 15.4528 10.7205 14.6825 10.3027C13.8819 9.86826 13.033 9.65156 12.1338 9.65156Z" fill="#001450"/>
<path d="M13.3992 11.9515C13.3992 12.6419 12.8395 13.2015 12.1492 13.2015C11.4588 13.2015 10.8992 12.6419 10.8992 11.9515C10.8992 11.2612 11.4588 10.7015 12.1492 10.7015C12.8395 10.7015 13.3992 11.2612 13.3992 11.9515Z" fill="#001450"/>
</g>
</g>
</svg>
