<svg width="24" height="24" viewBox="0 0 24 24" fill="none" xmlns="http://www.w3.org/2000/svg">
<g id="Icons / General / Print add">
<path id="Shape" d="M18.2986 20.7949V17.7949H15.2986V16.2949H18.2986V13.2949H19.7986V16.2949H22.7986V17.7949H19.7986V20.7949H18.2986ZM6.50056 20.4969V16.4969H2.78906V10.8047C2.78906 10.0964 3.03106 9.5026 3.51506 9.02344C3.99906 8.54427 4.5904 8.30469 5.28906 8.30469H18.7121C19.4204 8.30469 20.0141 8.54427 20.4933 9.02344C20.9725 9.5026 21.2121 10.0964 21.2121 10.8047V11.6142C20.9826 11.5052 20.7428 11.409 20.4928 11.3257C20.2428 11.2424 19.9826 11.1854 19.7121 11.1547V10.8662C19.7121 10.5829 19.6162 10.3351 19.4246 10.1229C19.2329 9.91077 18.9954 9.80469 18.7121 9.80469H5.28906C5.00573 9.80469 4.76823 9.90052 4.57656 10.0922C4.3849 10.2839 4.28906 10.5214 4.28906 10.8047V14.9969H6.50056V13.2277H14.5121C14.3159 13.447 14.1419 13.68 13.9901 13.9267C13.8381 14.1735 13.7082 14.4405 13.6006 14.7277H8.00056V18.9969H13.4371C13.5217 19.2738 13.6419 19.5356 13.7976 19.7824C13.9534 20.0293 14.1178 20.2674 14.2908 20.4969H6.50056ZM16.0006 8.30469V5.30469H8.00056V8.30469H6.50056V3.80469H17.5006V8.30469H16.0006Z" fill="#001450"/>
</g>
</svg>
