<svg width="24" height="24" viewBox="0 0 24 24" fill="none" xmlns="http://www.w3.org/2000/svg">
<g id="Icons / General / Print">
<path id="Shape" d="M16.0006 8.30469V5.30469H8.00056V8.30469H6.50056V3.80469H17.5006V8.30469H16.0006ZM17.8083 12.3047C18.0916 12.3047 18.3291 12.2089 18.5208 12.0172C18.7125 11.8255 18.8083 11.588 18.8083 11.3047C18.8083 11.0214 18.7125 10.7839 18.5208 10.5922C18.3291 10.4005 18.0916 10.3047 17.8083 10.3047C17.525 10.3047 17.2875 10.4005 17.0958 10.5922C16.9041 10.7839 16.8083 11.0214 16.8083 11.3047C16.8083 11.588 16.9041 11.8255 17.0958 12.0172C17.2875 12.2089 17.525 12.3047 17.8083 12.3047ZM16.0006 18.9969V14.7277H8.00056V18.9969H16.0006ZM17.5006 20.4969H6.50056V16.4969H2.78906V10.8047C2.78906 10.0964 3.03106 9.5026 3.51506 9.02344C3.99906 8.54427 4.5904 8.30469 5.28906 8.30469H18.7121C19.4204 8.30469 20.0141 8.54427 20.4933 9.02344C20.9725 9.5026 21.2121 10.0964 21.2121 10.8047V16.4969H17.5006V20.4969ZM19.7121 14.9969V10.8047C19.7121 10.5214 19.6162 10.2839 19.4246 10.0922C19.2329 9.90052 18.9954 9.80469 18.7121 9.80469H5.28906C5.00573 9.80469 4.76823 9.90052 4.57656 10.0922C4.3849 10.2839 4.28906 10.5214 4.28906 10.8047V14.9969H6.50056V13.2277H17.5006V14.9969H19.7121Z" fill="#001450"/>
</g>
</svg>
