<svg width="24" height="24" viewBox="0 0 24 24" fill="none" xmlns="http://www.w3.org/2000/svg">
<g id="Icons / General / Print search">
<g id="Shape">
<path d="M5.29978 19.8985V16.2985H1.98828V10.6063C1.98828 10.0813 2.17195 9.63333 2.53928 9.2625C2.90661 8.89167 3.35628 8.70625 3.88828 8.70625H17.7113C18.2363 8.70625 18.6842 8.89167 19.055 9.2625C19.4259 9.63333 19.6113 10.0813 19.6113 10.6063V11.1158C19.3985 11.0401 19.1879 10.9898 18.9795 10.9648C18.7712 10.9398 18.5485 10.9203 18.3113 10.9063V10.6178C18.2279 10.4344 18.0988 10.2867 17.9238 10.1745C17.7488 10.0623 17.5529 10.0063 17.3363 10.0063H4.23828C3.96911 10.0063 3.74345 10.0982 3.56128 10.2822C3.37928 10.4662 3.28828 10.6943 3.28828 10.9663V14.9985H5.29978V13.4293H13.1863C13.0568 13.6319 12.9369 13.8399 12.8268 14.0533C12.7164 14.2668 12.6241 14.4921 12.5498 14.7293H6.59978V18.5985H12.3863C12.4543 18.842 12.5369 19.0705 12.6343 19.284C12.7318 19.4975 12.842 19.7023 12.965 19.8985H5.29978ZM14.9998 8.70625V5.70625H6.59978V8.70625H5.29978V4.40625H16.2998V8.70625H14.9998Z" fill="#001450"/>
<path d="M17.7472 18.842C18.4626 18.842 19.068 18.5962 19.5635 18.1045C20.059 17.6127 20.3067 17.0092 20.3067 16.294C20.3067 15.5787 20.0603 14.9733 19.5675 14.4778C19.0746 13.9823 18.4698 13.7345 17.753 13.7345C17.1748 13.7345 16.6046 13.9489 16.0425 14.3778C15.4803 14.8066 15.1992 15.4434 15.1992 16.2883C15.1992 17.0051 15.4451 17.6099 15.9367 18.1028C16.4286 18.5956 17.0321 18.842 17.7472 18.842ZM22.478 21.9325L19.9895 19.419C19.669 19.6485 19.3201 19.8264 18.9427 19.9528C18.5652 20.0789 18.1728 20.142 17.7655 20.142C16.6866 20.142 15.7726 19.7674 15.0232 19.018C14.2739 18.2687 13.8992 17.3588 13.8992 16.2883C13.8992 15.2178 14.2739 14.3079 15.0232 13.5585C15.7726 12.8092 16.6825 12.4345 17.753 12.4345C18.8235 12.4345 19.7334 12.8092 20.4827 13.5585C21.2321 14.3079 21.6067 15.2178 21.6067 16.2883C21.6067 16.6984 21.5436 17.0936 21.4175 17.4738C21.2911 17.8539 21.1132 18.2043 20.8837 18.5248L23.3972 21.0133L22.478 21.9325Z" fill="#001450"/>
</g>
</g>
</svg>
