<svg width="24" height="24" viewBox="0 0 24 24" fill="none" xmlns="http://www.w3.org/2000/svg">
<g id="Icons / General / Security">
<path id="Shape" d="M12 21.4813C9.83717 20.8915 8.0465 19.6184 6.628 17.6621C5.20933 15.7057 4.5 13.5186 4.5 11.1006V5.34681L12 2.53906L19.5 5.34681V11.1006C19.5 13.5186 18.7907 15.7057 17.372 17.6621C15.9535 19.6184 14.1628 20.8915 12 21.4813ZM12 19.9006C13.7333 19.3506 15.1667 18.2506 16.3 16.6006C17.4333 14.9506 18 13.1172 18 11.1006V6.37556L12 4.13506L6 6.37556V11.1006C6 13.1172 6.56667 14.9506 7.7 16.6006C8.83333 18.2506 10.2667 19.3506 12 19.9006ZM10.0192 15.8276H13.9808C14.2369 15.8276 14.4516 15.7409 14.6248 15.5676C14.7979 15.3944 14.8845 15.1797 14.8845 14.9236V11.9621C14.8845 11.7061 14.7979 11.4914 14.6248 11.3181C14.4516 11.1449 14.2369 11.0583 13.9808 11.0583H13.8943V10.0583C13.8943 9.53398 13.7113 9.08881 13.3453 8.72281C12.9792 8.35665 12.534 8.17356 12.0095 8.17356C11.4852 8.17356 11.04 8.35665 10.674 8.72281C10.308 9.08881 10.125 9.53398 10.125 10.0583V11.0583H10.0192C9.76308 11.0583 9.54842 11.1449 9.37525 11.3181C9.20208 11.4914 9.1155 11.7061 9.1155 11.9621V14.9236C9.1155 15.1797 9.20208 15.3944 9.37525 15.5676C9.54842 15.7409 9.76308 15.8276 10.0192 15.8276ZM11.0095 11.0583V10.0583C11.0095 9.77498 11.1053 9.53748 11.297 9.34581C11.4887 9.15415 11.7262 9.05831 12.0095 9.05831C12.2928 9.05831 12.5303 9.15415 12.722 9.34581C12.9137 9.53748 13.0095 9.77498 13.0095 10.0583V11.0583H11.0095Z" fill="#001450"/>
</g>
</svg>
