<svg width="24" height="24" viewBox="0 0 24 24" fill="none" xmlns="http://www.w3.org/2000/svg">
<g id="Icons / Text editor / siglum">
<path id="Shape" d="M5.89844 19V17.454H8.8664V17.3872C6.98637 16.0893 5.89844 13.923 5.89844 11.4035V11.3845C5.89844 7.61486 8.43695 5 12.197 5C15.9571 5 18.4956 7.61486 18.4956 11.3845V11.4035C18.4956 13.923 17.4076 16.0893 15.5276 17.3872V17.454H18.4956V19H13.4758V17.1581C15.6994 15.6789 16.7396 13.8943 16.7396 11.4417V11.4226C16.7396 8.46421 15.0123 6.58419 12.197 6.58419C9.38174 6.58419 7.6544 8.46421 7.6544 11.4226V11.4417C7.6544 13.8943 8.69462 15.6789 10.9182 17.1581V19H5.89844Z" fill="#001450"/>
</g>
</svg>
