<svg width="24" height="24" viewBox="0 0 24 24" fill="none" xmlns="http://www.w3.org/2000/svg">
<g id="Icons / General / Star outline off">
<path id="Shape" d="M21 19.9714L3.17619 3L2 4.11429L7.24762 9.08571L2.81429 9.42857L7.79048 13.5429L6.34286 19.5429L11.9524 16.3714L17.5619 19.5429L17.2905 18.5143L19.9143 21L21 19.9714ZM15.3 16.7143L11.8619 14.7429L8.42381 16.7143L9.32857 13.0286L6.34286 10.5429L8.60476 10.3714L15.3 16.7143ZM11.1381 8.4L10.0524 7.37143L11.8619 3.25714L14.3952 8.91429L20.9095 9.42857L16.2952 13.2L15.3 12.2571L17.4714 10.5429L13.4905 10.2L11.9524 6.77143L11.1381 8.4Z" fill="#001450"/>
</g>
</svg>
