<svg width="24" height="24" viewBox="0 0 24 24" fill="none" xmlns="http://www.w3.org/2000/svg">
<g id="Icons / General / Suggestion">
<path id="Shape" d="M17.5505 8.75C17.1905 8.75 16.8305 8.85 16.4705 9.04C16.2705 8.74 16.0005 8.48 15.6705 8.29C15.3505 8.11 14.9805 8.01 14.5605 8C14.2005 8 13.8405 8.1 13.4805 8.29C13.2805 7.99 13.0105 7.73 12.6805 7.54C12.3605 7.36 11.9905 7.26 11.5705 7.25C11.3305 7.25 11.0805 7.33 10.8705 7.43V4.3C10.8705 3.03 9.84051 2 8.57051 2C7.30051 2 6.27051 3.03 6.27051 4.3V12.03L4.71051 14.02C3.73051 15.29 3.79051 17.08 4.85051 18.28L6.63051 20.3C7.13051 20.87 7.74051 21.32 8.43051 21.63C9.13051 21.94 9.86051 22.09 10.6105 22.09H14.5705C17.4905 22.09 19.8705 19.71 19.8705 16.79V11.04C19.8705 9.77 18.8405 8.74 17.5705 8.74L17.5505 8.75ZM7.85051 15.35V4.3C7.85051 3.91 8.16051 3.6 8.55051 3.6C8.94051 3.6 9.25051 3.91 9.25051 4.3V11.85H10.8505V9.55C10.8505 9.16 11.1605 8.85 11.5505 8.85C11.9405 8.85 12.2505 9.16 12.2505 9.55V11.85H13.8505V10.3C13.8505 9.91 14.1605 9.6 14.5505 9.6C14.9405 9.6 15.2505 9.91 15.2505 10.3V11.85H16.8505V11.05C16.8505 10.66 17.1605 10.35 17.5505 10.35C17.9405 10.35 18.2505 10.66 18.2505 11.05V16.8C18.2505 18.84 16.5905 20.5 14.5505 20.5H10.5905C10.0505 20.5 9.54051 20.39 9.07051 20.18C8.59051 19.97 8.17051 19.66 7.82051 19.25L6.04051 17.21C5.77051 16.91 5.62051 16.52 5.61051 16.12C5.59051 15.73 5.72051 15.34 5.97051 15.02L6.25051 14.65V15.34H7.85051V15.35Z" fill="#001450"/>
</g>
</svg>
