<svg width="24" height="24" viewBox="0 0 24 24" fill="none" xmlns="http://www.w3.org/2000/svg">
<g id="Icons / Text editor / underline">
<path id="Shape" d="M4.98047 21.0045V19.5045H18.288V21.0045H4.98047ZM11.6342 17.4082C10.0791 17.4082 8.8653 16.9361 7.99297 15.992C7.12047 15.0478 6.68422 13.7827 6.68422 12.1967V4.29297H8.53797V12.289C8.53797 13.2993 8.80655 14.109 9.34372 14.718C9.88089 15.327 10.6444 15.6315 11.6342 15.6315C12.6241 15.6315 13.3876 15.327 13.9247 14.718C14.4619 14.109 14.7305 13.2993 14.7305 12.289V4.29297H16.5842V12.1967C16.5842 13.7827 16.148 15.0478 15.2755 15.992C14.4031 16.9361 13.1894 17.4082 11.6342 17.4082Z" fill="#001450"/>
</g>
</svg>
