<svg width="24" height="24" viewBox="0 0 24 24" fill="none" xmlns="http://www.w3.org/2000/svg">
<g id="Icons / General / Warning triangle">
<g id="Shape">
<path d="M2.73063 19.9987L11.9999 3.99872L21.2691 19.9987H2.73063ZM4.44988 18.9987H19.5499L11.9999 5.99872L4.44988 18.9987ZM11.9999 17.6142C12.1742 17.6142 12.3204 17.5552 12.4384 17.4372C12.5564 17.3192 12.6154 17.1731 12.6154 16.9987C12.6154 16.8244 12.5564 16.6782 12.4384 16.5602C12.3204 16.4422 12.1742 16.3832 11.9999 16.3832C11.8255 16.3832 11.6794 16.4422 11.5614 16.5602C11.4434 16.6782 11.3844 16.8244 11.3844 16.9987C11.3844 17.1731 11.4434 17.3192 11.5614 17.4372C11.6794 17.5552 11.8255 17.6142 11.9999 17.6142ZM11.4999 15.3832H12.4999V10.3832H11.4999V15.3832Z" fill="#001450"/>
<path fill-rule="evenodd" clip-rule="evenodd" d="M11.9999 3.5L21.7029 20.2487H2.29688L11.9999 3.5ZM11.9999 4.49744L3.16438 19.7487H20.8354L11.9999 4.49744ZM11.9999 5.50093L19.9842 19.2487H4.01558L11.9999 5.50093ZM4.88418 18.7487H19.1156L11.9999 6.49651L4.88418 18.7487ZM11.2499 10.1332H12.7499V15.6332H11.2499V10.1332ZM11.7499 10.6332V15.1332H12.2499V10.6332H11.7499ZM11.3846 16.3834C11.5518 16.2163 11.7625 16.1332 11.9999 16.1332C12.2372 16.1332 12.448 16.2163 12.6152 16.3834C12.7823 16.5506 12.8654 16.7614 12.8654 16.9987C12.8654 17.2361 12.7823 17.4468 12.6152 17.614C12.448 17.7812 12.2372 17.8642 11.9999 17.8642C11.7625 17.8642 11.5518 17.7812 11.3846 17.614C11.2174 17.4468 11.1344 17.2361 11.1344 16.9987C11.1344 16.7614 11.2174 16.5506 11.3846 16.3834ZM11.9999 16.6332C11.8885 16.6332 11.807 16.6682 11.7382 16.737C11.6693 16.8058 11.6344 16.8874 11.6344 16.9987C11.6344 17.1101 11.6693 17.1916 11.7382 17.2604C11.807 17.3293 11.8885 17.3642 11.9999 17.3642C12.1112 17.3642 12.1928 17.3293 12.2616 17.2604C12.3304 17.1916 12.3654 17.1101 12.3654 16.9987C12.3654 16.8874 12.3304 16.8058 12.2616 16.737C12.1928 16.6682 12.1112 16.6332 11.9999 16.6332Z" fill="#001450"/>
</g>
</g>
</svg>
