<svg width="24" height="24" viewBox="0 0 24 24" fill="none" xmlns="http://www.w3.org/2000/svg">
<g id="Icons / General / Zoom in">
<path id="Shape" d="M19.5425 20.5751L13.2618 14.2941C12.7618 14.7069 12.1868 15.03 11.5368 15.2633C10.8868 15.4966 10.2144 15.6133 9.51955 15.6133C7.81038 15.6133 6.36388 15.0216 5.18005 13.8381C3.99621 12.6546 3.4043 11.2084 3.4043 9.49956C3.4043 7.7909 3.99605 6.34423 5.17955 5.15956C6.36305 3.97506 7.80921 3.38281 9.51805 3.38281C11.2267 3.38281 12.6734 3.97473 13.858 5.15856C15.0425 6.3424 15.6348 7.7889 15.6348 9.49806C15.6348 10.2122 15.515 10.8943 15.2753 11.5443C15.0355 12.1943 14.7155 12.7596 14.3155 13.2403L20.5963 19.5211L19.5425 20.5751ZM9.51955 14.1136C10.808 14.1136 11.8994 13.6664 12.7935 12.7721C13.6879 11.8779 14.135 10.7866 14.135 9.49806C14.135 8.20956 13.6879 7.11823 12.7935 6.22406C11.8994 5.32973 10.808 4.88256 9.51955 4.88256C8.23105 4.88256 7.13971 5.32973 6.24555 6.22406C5.35121 7.11823 4.90405 8.20956 4.90405 9.49806C4.90405 10.7866 5.35121 11.8779 6.24555 12.7721C7.13971 13.6664 8.23105 14.1136 9.51955 14.1136ZM8.76955 12.1903V10.2481H6.8273V8.74806H8.76955V6.80581H10.2695V8.74806H12.2118V10.2481H10.2695V12.1903H8.76955Z" fill="#001450"/>
</g>
</svg>
